<svg width="34" height="31" viewBox="0 0 34 31" fill="none" xmlns="http://www.w3.org/2000/svg">
<path d="M25.1257 14.5174C23.7502 14.5175 22.3968 14.8624 21.1904 15.5202C22.7242 14.5817 23.9082 13.1704 24.5627 11.5008C25.2171 9.83126 25.3062 7.99464 24.8163 6.27006C24.3265 4.54549 23.2845 3.02724 21.8487 1.94604C20.4129 0.864838 18.6617 0.279785 16.8614 0.279785C15.0611 0.279785 13.31 0.864838 11.8742 1.94604C10.4384 3.02724 9.39636 4.54549 8.9065 6.27006C8.41663 7.99464 8.5057 9.83126 9.16015 11.5008C9.81461 13.1704 10.9987 14.5817 12.5324 15.5202C11.3254 14.8624 9.97149 14.5175 8.59543 14.5174C6.59662 14.5143 4.66416 15.2311 3.15485 16.5356C1.64554 17.8401 0.661302 19.6442 0.383865 21.6147C0.106429 23.5852 0.554527 25.5891 1.64543 27.2564C2.73633 28.9237 4.39637 30.1418 6.31903 30.6858C8.24169 31.2298 10.2971 31.0629 12.1059 30.2161C13.9146 29.3692 15.3544 27.8994 16.1596 26.0782C16.9647 24.257 17.0808 22.2073 16.4863 20.3075C15.8918 18.4078 14.627 16.7863 12.9253 15.7425C14.1333 16.3962 15.4864 16.7386 16.8614 16.7386C18.2364 16.7386 19.5895 16.3962 20.7976 15.7425C19.1015 16.7846 17.8414 18.4022 17.2498 20.2969C16.6581 22.1915 16.7749 24.2353 17.5785 26.0509C18.3821 27.8666 19.8183 29.3316 21.622 30.1756C23.4258 31.0196 25.4754 31.1856 27.3925 30.643C29.3096 30.1003 30.9648 28.8857 32.0527 27.2233C33.1405 25.5608 33.5876 23.5627 33.3114 21.5978C33.0352 19.6329 32.0544 17.8337 30.5499 16.5324C29.0454 15.231 27.1188 14.5154 25.1257 14.5174Z" fill="#242529"/>
</svg>
